<svg width="291" height="57" viewBox="0 0 291 57" fill="none" xmlns="http://www.w3.org/2000/svg">
<path d="M78.5853 44.3415C77.0171 44.3415 75.5627 44.0253 74.2222 43.393C72.9069 42.7606 71.8572 41.9007 71.0731 40.813C70.289 39.7254 69.897 38.5113 69.897 37.1708V32.3145C69.897 30.8981 70.289 29.6081 71.0731 28.4446C71.8825 27.2558 72.9575 26.3326 74.298 25.675C75.6386 25.0174 77.0803 24.6885 78.6232 24.6885C80.1408 24.6885 81.5319 25.0047 82.7966 25.637C84.0866 26.2441 85.0983 27.1167 85.8318 28.2549C86.5653 29.3678 86.9321 30.6325 86.9321 32.0489V34.0977C86.9321 34.7047 86.7044 35.2232 86.2491 35.6532C85.7939 36.0579 85.2121 36.2602 84.5039 36.2602H74.943V36.7914C74.943 37.8031 75.2465 38.6378 75.8536 39.2954C76.4859 39.9278 77.4091 40.2439 78.6232 40.2439C79.812 40.2439 80.6846 39.991 81.2411 39.4851C81.7975 38.954 82.0757 38.2964 82.0757 37.5123C82.5816 37.4617 82.961 37.4364 83.2139 37.4364C84.251 37.4364 85.0477 37.6514 85.6042 38.0814C86.1606 38.5113 86.4388 39.1437 86.4388 39.9784C86.4388 40.6613 86.0974 41.3442 85.4145 42.0271C84.7315 42.71 83.783 43.2665 82.569 43.6965C81.3802 44.1265 80.0523 44.3415 78.5853 44.3415ZM82.2275 32.5801V32.0489C82.2275 31.0372 81.886 30.2404 81.2031 29.6587C80.5455 29.0516 79.6729 28.7481 78.5853 28.7481C77.4976 28.7481 76.6124 29.0516 75.9295 29.6587C75.2718 30.2404 74.943 31.0372 74.943 32.0489V32.5801H82.2275ZM201.07 44.3415C199.679 44.3415 198.528 44.0379 197.617 43.4309C196.732 42.8239 196.138 41.9386 195.834 40.7751L189.953 17.7455C190.687 17.3155 191.572 17.1005 192.609 17.1005C193.646 17.1005 194.481 17.3282 195.113 17.7835C195.746 18.2387 196.163 18.909 196.365 19.7943L199.249 32.9974L198.452 36.1464L198.831 36.2602L203.65 18.9975C203.827 18.4158 204.13 17.9605 204.56 17.6317C204.99 17.2776 205.509 17.1005 206.116 17.1005C206.723 17.1005 207.241 17.2776 207.671 17.6317C208.127 17.9605 208.43 18.4158 208.582 18.9975L212.376 33.3768L211.579 36.7155L212.072 36.8673L215.866 19.7943C216.069 18.909 216.486 18.2387 217.118 17.7835C217.751 17.3282 218.585 17.1005 219.622 17.1005C220.659 17.1005 221.545 17.3155 222.278 17.7455L216.398 40.7751C216.094 41.9386 215.487 42.8239 214.576 43.4309C213.691 44.0379 212.553 44.3415 211.162 44.3415L205.623 23.8918L205.281 24.0056L205.926 26.3958L201.07 44.3415ZM225.271 19.984C225.271 19.2758 225.536 18.6814 226.068 18.2008C226.624 17.6949 227.294 17.442 228.078 17.442H245.038C245.038 19.1114 244.759 20.3254 244.203 21.0842C243.646 21.843 242.748 22.2224 241.509 22.2224H230.848V28.217H240.788C240.788 29.8863 240.51 31.1004 239.954 31.8592C239.397 32.618 238.499 32.9974 237.26 32.9974H230.848V39.2196H242.306C243.52 39.2196 244.405 39.599 244.962 40.3578C245.518 41.1166 245.796 42.3306 245.796 44H228.078C227.294 44 226.624 43.7597 226.068 43.2791C225.536 42.7986 225.271 42.1915 225.271 41.458V19.984ZM251.71 44C250.9 44 250.205 43.7091 249.623 43.1274C249.066 42.5456 248.788 41.8501 248.788 41.0407V21.1222C248.788 19.7563 249.244 18.7446 250.154 18.087C251.065 17.4294 252.468 17.1005 254.365 17.1005V39.1816H264.154C265.419 39.1816 266.38 39.599 267.037 40.4336C267.72 41.243 268.062 42.4318 268.062 44H251.71ZM273.597 44C272.787 44 272.092 43.7091 271.51 43.1274C270.954 42.5456 270.675 41.8501 270.675 41.0407V21.1222C270.675 19.7563 271.131 18.7446 272.041 18.087C272.952 17.4294 274.356 17.1005 276.253 17.1005V39.1816H286.041C287.306 39.1816 288.267 39.599 288.925 40.4336C289.608 41.243 289.949 42.4318 289.949 44H273.597Z" fill="#00BBB4"/>
<path d="M100.673 44.3415C97.1321 44.3415 94.3245 43.7344 92.2505 42.5203C90.2017 41.3063 89.1773 39.6243 89.1773 37.4743C89.1773 36.5385 89.5314 35.7797 90.2397 35.1979C90.9479 34.6162 92.1367 34.3253 93.806 34.3253C93.9072 36.1717 94.5395 37.5755 95.703 38.5366C96.8918 39.4725 98.5485 39.9404 100.673 39.9404C102.317 39.9404 103.607 39.6622 104.543 39.1057C105.479 38.524 105.947 37.7273 105.947 36.7155C105.947 36.0326 105.77 35.4761 105.416 35.0462C105.062 34.6162 104.442 34.2241 103.557 33.87C102.697 33.5159 101.432 33.1492 99.7626 32.7698C97.2333 32.188 95.2477 31.5304 93.806 30.7969C92.3643 30.0634 91.3146 29.1908 90.657 28.179C90.0247 27.1673 89.7085 25.9026 89.7085 24.385C89.7085 22.9433 90.1385 21.6786 90.9985 20.591C91.8837 19.4781 93.1105 18.6181 94.6786 18.0111C96.2468 17.4041 98.0679 17.1005 100.142 17.1005C102.115 17.1005 103.885 17.3661 105.454 17.8973C107.022 18.4031 108.249 19.124 109.134 20.0599C110.019 20.9957 110.462 22.0707 110.462 23.2848C110.462 24.2206 110.108 24.9668 109.399 25.5232C108.716 26.0544 107.578 26.3453 105.985 26.3958C105.858 24.7012 105.34 23.4618 104.429 22.6777C103.519 21.8936 102.09 21.5016 100.142 21.5016C98.5485 21.5016 97.3218 21.7545 96.4618 22.2604C95.6018 22.7662 95.1719 23.4998 95.1719 24.4609C95.1719 25.1185 95.3363 25.6623 95.6651 26.0923C95.9939 26.497 96.5503 26.8638 97.3344 27.1926C98.1438 27.5214 99.2947 27.8502 100.787 28.179C103.392 28.7608 105.454 29.431 106.971 30.1898C108.514 30.9233 109.627 31.8086 110.31 32.8456C111.018 33.8827 111.372 35.16 111.372 36.6776C111.372 38.2205 110.93 39.5737 110.044 40.7372C109.184 41.9007 107.945 42.7986 106.326 43.4309C104.733 44.0379 102.848 44.3415 100.673 44.3415ZM114.38 21.1222C114.38 19.8069 114.848 18.8078 115.784 18.1249C116.745 17.442 118.136 17.1005 119.957 17.1005V28.217H130.618V21.1222C130.618 19.8069 131.086 18.8078 132.022 18.1249C132.983 17.442 134.374 17.1005 136.195 17.1005V40.3198C136.195 41.6351 135.715 42.6342 134.754 43.3171C133.818 44 132.439 44.3415 130.618 44.3415V33.0353H119.957V40.3198C119.957 41.6351 119.476 42.6342 118.515 43.3171C117.579 44 116.201 44.3415 114.38 44.3415V21.1222ZM150.596 44.3415C148.522 44.3415 146.613 43.9368 144.867 43.1274C143.122 42.2927 141.731 41.1798 140.694 39.7887C139.682 38.3722 139.176 36.8546 139.176 35.2359V26.2061C139.176 24.5874 139.682 23.0824 140.694 21.6913C141.731 20.2749 143.122 19.1619 144.867 18.3526C146.613 17.5179 148.522 17.1005 150.596 17.1005C152.67 17.1005 154.58 17.5179 156.325 18.3526C158.07 19.1619 159.449 20.2749 160.461 21.6913C161.498 23.0824 162.016 24.5874 162.016 26.2061V35.2359C162.016 36.8546 161.498 38.3722 160.461 39.7887C159.449 41.1798 158.07 42.2927 156.325 43.1274C154.58 43.9368 152.67 44.3415 150.596 44.3415ZM150.596 39.4851C152.316 39.4851 153.72 39.0804 154.808 38.2711C155.895 37.4617 156.439 36.412 156.439 35.122V26.32C156.439 25.03 155.895 23.9803 154.808 23.1709C153.72 22.3616 152.316 21.9569 150.596 21.9569C148.876 21.9569 147.473 22.3616 146.385 23.1709C145.297 23.9803 144.754 25.03 144.754 26.32V35.122C144.754 36.412 145.297 37.4617 146.385 38.2711C147.473 39.0804 148.876 39.4851 150.596 39.4851ZM165.009 19.984C165.009 19.2505 165.274 18.6434 165.805 18.1629C166.362 17.6823 167.032 17.442 167.816 17.442H178.174C180.046 17.442 181.702 17.8214 183.144 18.5802C184.586 19.3137 185.699 20.3507 186.483 21.6913C187.292 23.0318 187.697 24.5874 187.697 26.3579C187.697 28.1537 187.305 29.7346 186.521 31.1004C185.737 32.4409 184.624 33.478 183.182 34.2115C181.766 34.945 180.096 35.3117 178.174 35.3117H170.586V40.3198C170.586 41.6351 170.105 42.6342 169.144 43.3171C168.208 44 166.83 44.3415 165.009 44.3415V19.984ZM178.174 30.4934C179.439 30.4934 180.412 30.1393 181.095 29.431C181.778 28.6975 182.12 27.6605 182.12 26.32C182.12 25.03 181.778 24.0309 181.095 23.3227C180.412 22.6145 179.439 22.2604 178.174 22.2604H170.586V30.4934H178.174Z" fill="#F15A29"/>
<g clip-path="url(#clip0_13_62)">
<path d="M8.28125 25.2134V52.5156H28.2266V39.3928C28.2266 36.3437 30.6983 33.872 33.7474 33.872C36.7965 33.872 39.2683 36.3437 39.2683 39.3928V52.5156H44.7188V25.2134H8.28125ZM22.4485 36.3672H15.8235C14.9088 36.3672 14.1673 35.6256 14.1673 34.7109C14.1673 33.7962 14.9088 33.0547 15.8235 33.0547H22.4485C23.3633 33.0547 24.1048 33.7962 24.1048 34.7109C24.1048 35.6256 23.3633 36.3672 22.4485 36.3672Z" fill="#00BBB4"/>
<path d="M51.3438 54.1719H1.65625C0.741592 54.1719 0 53.4303 0 52.5156C0 51.601 0.741592 50.8594 1.65625 50.8594H51.3438C52.2584 50.8594 53 51.601 53 52.5156C53 53.4303 52.2584 54.1719 51.3438 54.1719Z" fill="#1B75BC"/>
<path d="M8.6533 22.7549C3.6683 22.7549 0.285629 17.686 2.19869 13.0827L6.46032 2.82812H17.502L15.577 16.7242C15.0981 20.181 12.1431 22.7549 8.6533 22.7549Z" fill="#F15A29"/>
<path d="M26.7564 22.7549H26.2436C22.0019 22.7549 18.7379 19.0075 19.3199 14.806L20.9792 2.82812H32.0209L33.6801 14.806C34.2622 19.0075 30.9981 22.7549 26.7564 22.7549Z" fill="#F15A29"/>
<path d="M44.3467 22.7549C40.857 22.7549 37.9019 20.181 37.423 16.7242L35.498 2.82812H46.5397L50.8013 13.0827C52.7144 17.686 49.3317 22.7549 44.3467 22.7549Z" fill="#F15A29"/>
</g>
<defs>
<clipPath id="clip0_13_62">
<rect width="53" height="53" fill="white" transform="translate(0 2)"/>
</clipPath>
</defs>
</svg>
